# xmcd CD database file
#
# Track frame offsets:
#        150
#        12919
#        26717
#        40877
#        57611
#        69975
#        83273
#        100522
#        118344
#        133050
#
# Disc length: 1947 seconds
#
# Revision: 0
# Processed by: cddbd v1.5.2PL0 Copyright (c) Steve Scherf et al.
# Submitted via: CUERipper 2.1.5
#
DISCID=7e07990a
DTITLE=Joshua Black Wilkins - Settling The Dust
DYEAR=2014
DGENRE=Country
TTITLE0=Late Night Talks
TTITLE1=Trouble We've Made
TTITLE2=I Wasn't The One
TTITLE3=New York Or Louisiana
TTITLE4=Glass House
TTITLE5=Settling The Dust
TTITLE6=Don't Think That I
TTITLE7=Church On A Hill
TTITLE8=Take My Time
TTITLE9=I Heard Your Whisper
EXTD=
EXTT0=
EXTT1=
EXTT2=
EXTT3=
EXTT4=
EXTT5=
EXTT6=
EXTT7=
EXTT8=
EXTT9=
PLAYORDER=
